<svg id="svg" version="1.1" xmlns="http://www.w3.org/2000/svg" xmlns:xlink="http://www.w3.org/1999/xlink" width="400" height="400" viewBox="0, 0, 400,400"><g id="svgg"><path id="path0" d="M202.000 150.833 L 202.000 197.833 249.167 197.833 L 296.333 197.833 296.333 150.833 L 296.333 103.833 249.167 103.833 L 202.000 103.833 202.000 150.833 " stroke="none" fill="#048383" fill-rule="evenodd"></path><path id="path1" d="M0.000 99.000 L 0.000 198.000 99.000 198.000 L 198.000 198.000 198.000 99.000 L 198.000 0.000 99.000 0.000 L 0.000 0.000 0.000 99.000 M202.167 49.917 L 202.167 99.833 251.250 99.833 L 300.333 99.833 300.333 148.917 L 300.333 198.000 350.167 198.000 L 400.000 198.000 400.000 99.000 L 400.000 0.000 301.083 0.000 L 202.167 0.000 202.167 49.917 M70.667 85.833 L 70.667 87.500 66.083 87.500 L 61.500 87.500 61.500 99.583 L 61.500 111.667 59.667 111.667 L 57.833 111.667 57.833 99.583 L 57.833 87.500 53.333 87.500 L 48.833 87.500 48.833 85.833 L 48.833 84.167 59.750 84.167 L 70.667 84.167 70.667 85.833 M78.167 89.833 L 78.167 95.500 85.250 95.500 L 92.333 95.500 92.333 89.833 L 92.333 84.167 94.250 84.167 L 96.167 84.167 96.167 97.917 L 96.167 111.667 94.250 111.667 L 92.333 111.667 92.333 105.250 L 92.333 98.833 85.250 98.833 L 78.167 98.833 78.167 105.250 L 78.167 111.667 76.333 111.667 L 74.500 111.667 74.500 97.917 L 74.500 84.167 76.333 84.167 L 78.167 84.167 78.167 89.833 M120.833 85.833 L 120.833 87.500 113.417 87.500 L 106.000 87.500 106.000 91.750 L 106.000 96.000 112.417 96.000 L 118.833 96.000 118.833 97.667 L 118.833 99.333 112.417 99.333 L 106.000 99.333 106.000 105.500 L 106.000 111.667 104.083 111.667 L 102.167 111.667 102.167 97.917 L 102.167 84.167 111.500 84.167 L 120.833 84.167 120.833 85.833 M144.333 85.833 L 144.333 87.500 136.917 87.500 L 129.500 87.500 129.500 91.750 L 129.500 96.000 135.917 96.000 L 142.333 96.000 142.333 97.667 L 142.333 99.333 135.917 99.333 L 129.500 99.333 129.500 105.500 L 129.500 111.667 127.583 111.667 L 125.667 111.667 125.667 97.917 L 125.667 84.167 135.000 84.167 L 144.333 84.167 144.333 85.833 M0.000 301.083 L 0.000 400.000 99.000 400.000 L 198.000 400.000 198.000 362.583 L 198.000 325.167 136.500 325.167 L 75.000 325.167 75.000 263.667 L 75.000 202.167 37.500 202.167 L 0.000 202.167 0.000 301.083 M202.167 301.083 L 202.167 400.000 301.083 400.000 L 400.000 400.000 400.000 301.083 L 400.000 202.167 301.083 202.167 L 202.167 202.167 202.167 301.083 M252.667 234.500 L 252.667 235.667 249.583 235.667 L 246.500 235.667 246.500 243.667 L 246.500 251.667 245.250 251.667 L 244.000 251.667 244.000 243.667 L 244.000 235.667 241.000 235.667 L 238.000 235.667 238.000 234.500 L 238.000 233.333 245.333 233.333 L 252.667 233.333 252.667 234.500 M257.333 236.597 L 257.333 239.861 257.983 239.347 C 260.588 237.284,264.322 237.918,265.323 240.594 C 265.643 241.448,265.667 241.869,265.667 246.590 L 265.667 251.667 264.511 251.667 L 263.356 251.667 263.303 246.708 C 263.256 242.346,263.215 241.685,262.956 241.211 C 262.144 239.725,259.872 239.817,258.042 241.410 L 257.333 242.026 257.333 246.846 L 257.333 251.667 256.083 251.667 L 254.833 251.667 254.833 242.500 L 254.833 233.333 256.083 233.333 L 257.333 233.333 257.333 236.597 M277.196 238.619 C 279.254 239.547,280.496 241.536,280.631 244.118 L 280.712 245.667 275.773 245.667 L 270.833 245.667 270.833 246.053 C 270.833 248.148,272.756 250.167,274.750 250.167 C 276.101 250.167,277.699 249.157,277.917 248.167 L 278.026 247.667 279.263 247.667 C 280.701 247.667,280.740 247.732,280.106 249.083 C 278.333 252.861,271.854 253.078,269.440 249.442 C 267.716 246.843,267.940 242.260,269.902 240.019 C 271.411 238.295,274.966 237.612,277.196 238.619 M273.273 240.244 C 272.128 240.652,271.195 241.871,270.939 243.292 L 270.842 243.833 274.517 243.833 L 278.193 243.833 278.082 243.292 C 277.571 240.802,275.460 239.464,273.273 240.244 M242.000 266.083 L 242.000 269.833 246.750 269.833 L 251.500 269.833 251.500 266.083 L 251.500 262.333 252.750 262.333 L 254.000 262.333 254.000 271.500 L 254.000 280.667 252.750 280.667 L 251.500 280.667 251.500 276.417 L 251.500 272.167 246.750 272.167 L 242.000 272.167 242.000 276.417 L 242.000 280.667 240.750 280.667 L 239.500 280.667 239.500 271.500 L 239.500 262.333 240.750 262.333 L 242.000 262.333 242.000 266.083 M266.167 267.623 C 268.265 268.576,268.405 269.053,268.467 275.458 L 268.518 280.667 267.259 280.667 L 266.000 280.667 266.000 280.089 L 266.000 279.511 265.292 279.982 C 261.754 282.331,256.991 280.693,257.004 277.132 C 257.014 274.157,259.739 272.501,264.625 272.500 L 266.000 272.500 265.998 271.542 C 265.993 269.666,265.256 269.080,262.912 269.089 C 260.826 269.096,260.289 269.430,259.771 271.042 C 259.693 271.283,259.475 271.333,258.505 271.333 L 257.333 271.333 257.333 270.866 C 257.333 269.340,258.891 267.777,260.917 267.270 C 261.820 267.044,265.425 267.286,266.167 267.623 M278.403 267.350 C 278.762 267.450,279.343 267.713,279.695 267.934 L 280.333 268.338 280.333 267.835 L 280.333 267.333 281.508 267.333 L 282.683 267.333 282.633 274.792 L 282.583 282.250 282.116 283.202 C 280.206 287.091,272.867 287.107,271.704 283.225 C 271.341 282.012,271.351 282.000,272.742 282.000 L 273.985 282.000 274.095 282.584 C 274.311 283.738,275.650 284.334,277.527 284.111 C 279.311 283.900,280.115 282.858,280.291 280.528 L 280.388 279.251 279.753 279.809 C 276.709 282.481,272.141 280.665,271.320 276.455 C 270.161 270.515,273.650 266.030,278.403 267.350 M294.656 267.841 C 296.555 268.853,297.601 270.673,297.785 273.284 L 297.883 274.667 292.862 274.667 L 287.842 274.667 287.938 275.208 C 288.357 277.566,289.404 278.798,291.221 279.070 C 292.905 279.323,295.000 278.235,295.000 277.109 C 295.000 276.668,295.003 276.667,296.316 276.667 L 297.632 276.667 297.508 277.208 C 296.533 281.494,289.574 282.466,286.728 278.714 C 284.280 275.486,285.200 269.578,288.417 267.875 C 290.180 266.942,292.940 266.927,294.656 267.841 M308.583 267.353 C 309.442 267.591,310.725 268.859,311.007 269.750 C 311.151 270.204,311.241 272.051,311.290 275.542 L 311.362 280.667 310.098 280.667 L 308.833 280.667 308.832 275.958 C 308.832 273.261,308.759 270.988,308.661 270.636 C 308.128 268.716,305.602 268.622,303.649 270.449 L 302.833 271.212 302.833 275.939 L 302.833 280.667 301.583 280.667 L 300.333 280.667 300.333 274.000 L 300.333 267.333 301.583 267.333 L 302.833 267.333 302.833 268.199 L 302.833 269.065 303.375 268.566 C 304.188 267.815,304.438 267.649,305.123 267.405 C 305.892 267.131,307.683 267.104,308.583 267.353 M276.023 269.111 C 273.293 269.691,272.719 276.941,275.266 278.661 C 276.519 279.506,278.596 279.002,279.772 277.567 L 280.333 276.882 280.333 273.700 L 280.333 270.517 279.792 270.111 C 278.643 269.252,277.185 268.865,276.023 269.111 M290.676 269.113 C 289.679 269.322,288.476 270.542,288.166 271.660 C 287.818 272.913,287.581 272.833,291.658 272.833 L 295.315 272.833 295.061 271.958 C 294.435 269.802,292.714 268.685,290.676 269.113 M262.500 274.448 C 260.553 274.774,259.500 275.659,259.500 276.969 C 259.500 279.189,262.618 279.863,265.074 278.173 C 265.964 277.561,266.000 277.467,266.000 275.736 L 266.000 274.333 264.458 274.356 C 263.610 274.369,262.729 274.410,262.500 274.448 M251.966 292.458 L 251.917 293.583 246.958 293.627 L 242.000 293.672 242.000 296.419 L 242.000 299.167 246.333 299.167 L 250.667 299.167 250.667 300.333 L 250.667 301.500 246.333 301.500 L 242.000 301.500 242.000 305.583 L 242.000 309.667 240.750 309.667 L 239.500 309.667 239.500 300.500 L 239.500 291.333 245.758 291.333 L 252.015 291.333 251.966 292.458 M292.833 292.667 L 292.833 294.000 291.583 294.000 L 290.333 294.000 290.333 292.667 L 290.333 291.333 291.583 291.333 L 292.833 291.333 292.833 292.667 M298.667 300.500 L 298.667 309.667 297.417 309.667 L 296.167 309.667 296.167 300.611 C 296.167 295.631,296.217 291.506,296.278 291.444 C 296.339 291.383,296.901 291.333,297.528 291.333 L 298.667 291.333 298.667 300.500 M263.437 296.711 C 265.482 297.765,265.667 298.432,265.667 304.780 L 265.667 309.667 264.417 309.667 L 263.167 309.667 263.167 309.089 L 263.167 308.511 262.458 308.988 C 259.404 311.043,254.810 309.926,254.177 306.976 C 253.466 303.658,256.465 301.501,261.792 301.500 L 263.167 301.500 263.164 300.542 C 263.159 298.665,262.421 298.078,260.083 298.093 C 258.056 298.107,257.147 298.619,256.974 299.846 C 256.920 300.226,256.845 300.253,255.708 300.299 L 254.500 300.348 254.500 299.871 C 254.500 298.484,255.954 296.861,257.612 296.396 C 259.047 295.993,262.395 296.174,263.437 296.711 M277.085 296.477 C 277.723 296.767,278.711 297.717,278.870 298.192 C 278.920 298.344,279.128 298.223,279.514 297.818 C 281.724 295.495,285.218 295.607,286.471 298.042 C 287.016 299.101,287.147 300.530,287.158 305.542 L 287.167 309.667 285.930 309.667 L 284.692 309.667 284.638 304.625 C 284.596 300.759,284.530 299.486,284.355 299.167 C 283.558 297.709,281.774 297.792,280.064 299.369 L 279.333 300.042 279.333 304.855 L 279.333 309.667 278.083 309.667 L 276.833 309.667 276.833 304.745 C 276.833 299.465,276.769 298.991,275.981 298.438 C 275.066 297.798,273.405 298.262,272.160 299.507 L 271.500 300.167 271.500 304.917 L 271.500 309.667 270.248 309.667 L 268.996 309.667 269.040 303.042 L 269.083 296.417 270.292 296.368 L 271.500 296.319 271.500 297.193 L 271.500 298.068 272.125 297.460 C 273.412 296.207,275.556 295.783,277.085 296.477 M292.833 303.000 L 292.833 309.667 291.583 309.667 L 290.333 309.667 290.333 303.000 L 290.333 296.333 291.583 296.333 L 292.833 296.333 292.833 303.000 M304.342 299.458 C 304.919 301.177,305.702 303.494,306.082 304.606 L 306.774 306.629 307.921 303.273 C 308.552 301.427,309.334 299.129,309.659 298.167 L 310.250 296.417 311.542 296.368 C 313.101 296.309,313.086 295.996,311.690 299.618 C 311.061 301.249,309.888 304.346,309.084 306.500 C 306.153 314.347,305.326 315.433,302.551 315.086 L 301.667 314.976 301.667 313.842 L 301.667 312.708 302.442 312.795 C 303.453 312.909,304.099 312.560,304.772 311.536 C 305.908 309.810,306.151 310.825,302.024 300.053 C 301.385 298.386,300.814 296.867,300.753 296.678 C 300.649 296.349,300.706 296.333,301.969 296.333 L 303.294 296.333 304.342 299.458 M259.167 303.563 C 255.599 304.350,255.736 308.056,259.333 308.064 C 261.867 308.069,263.167 306.976,263.167 304.841 L 263.167 303.333 261.625 303.347 C 260.777 303.355,259.671 303.452,259.167 303.563 M251.966 321.375 L 252.015 322.500 247.008 322.500 L 242.000 322.500 242.000 325.247 L 242.000 327.994 246.292 328.039 L 250.583 328.083 250.633 329.208 L 250.682 330.333 246.341 330.333 L 242.000 330.333 242.000 334.500 L 242.000 338.667 240.750 338.667 L 239.500 338.667 239.500 329.415 L 239.500 320.163 245.708 320.206 L 251.917 320.250 251.966 321.375 M308.333 329.417 L 308.333 338.667 307.167 338.667 L 306.000 338.667 306.000 337.899 L 306.000 337.132 305.383 337.673 C 301.168 341.374,295.947 337.108,296.813 330.671 C 297.443 325.991,301.937 323.460,305.359 325.857 C 305.602 326.027,305.846 326.167,305.901 326.167 C 305.955 326.167,306.000 324.817,306.000 323.167 L 306.000 320.167 307.167 320.167 L 308.333 320.167 308.333 329.417 M335.632 321.542 L 335.681 322.833 334.424 322.833 L 333.167 322.833 333.167 321.493 L 333.167 320.152 334.375 320.201 L 335.583 320.250 335.632 321.542 M328.833 323.667 L 328.833 325.333 329.917 325.333 L 331.000 325.333 331.000 326.250 L 331.000 327.167 329.917 327.167 L 328.833 327.167 328.836 331.542 C 328.839 336.825,328.812 336.729,330.304 336.800 L 331.350 336.850 331.300 337.707 C 331.241 338.720,330.814 338.933,329.142 338.785 C 326.566 338.556,326.351 338.000,326.341 331.542 L 326.333 327.167 325.500 327.167 L 324.667 327.167 324.667 326.250 L 324.667 325.333 325.500 325.333 L 326.333 325.333 326.333 323.667 L 326.333 322.000 327.583 322.000 L 328.833 322.000 328.833 323.667 M262.121 325.236 C 265.453 326.123,267.342 330.240,266.268 334.275 C 264.531 340.797,255.404 340.478,254.168 333.852 C 253.083 328.043,256.946 323.858,262.121 325.236 M291.434 325.246 C 293.796 325.947,294.073 326.773,294.134 333.292 L 294.184 338.667 293.022 338.667 L 291.859 338.667 291.805 333.708 C 291.758 329.487,291.709 328.676,291.475 328.250 C 290.527 326.522,288.370 326.616,286.458 328.470 L 285.667 329.237 285.667 333.952 L 285.667 338.667 284.500 338.667 L 283.333 338.667 283.333 332.000 L 283.333 325.333 284.500 325.333 L 285.667 325.333 285.667 326.083 C 285.667 326.957,285.700 326.974,286.299 326.405 C 287.623 325.149,289.603 324.702,291.434 325.246 M319.369 325.259 C 320.868 325.648,321.555 326.155,322.109 327.283 L 322.583 328.250 322.639 333.458 L 322.695 338.667 321.431 338.667 L 320.167 338.667 320.167 338.083 C 320.167 337.387,320.178 337.390,319.395 337.920 C 315.615 340.486,310.310 338.128,311.124 334.245 C 311.623 331.866,313.513 330.807,317.895 330.449 L 320.206 330.261 320.122 329.202 C 319.979 327.421,319.170 326.911,316.678 327.030 C 314.937 327.114,314.289 327.468,313.978 328.508 L 313.781 329.167 312.579 329.167 L 311.378 329.167 311.501 328.542 C 312.061 325.710,315.527 324.264,319.369 325.259 M346.219 325.249 C 351.587 326.647,352.355 336.107,347.283 338.334 C 342.389 340.482,338.236 337.528,338.259 331.917 C 338.280 326.801,341.577 324.040,346.219 325.249 M361.312 325.259 C 363.704 325.970,364.045 326.971,364.127 333.542 L 364.192 338.667 362.938 338.667 L 361.685 338.667 361.634 333.625 C 361.576 327.853,361.527 327.628,360.241 327.195 C 358.985 326.772,357.706 327.163,356.398 328.369 L 355.667 329.042 355.667 333.855 L 355.667 338.667 354.417 338.667 L 353.167 338.667 353.167 332.000 L 353.167 325.333 354.417 325.333 L 355.667 325.333 355.667 326.096 L 355.667 326.859 356.362 326.264 C 357.725 325.097,359.532 324.731,361.312 325.259 M271.500 330.163 C 271.500 335.523,271.593 336.114,272.512 336.590 C 273.745 337.227,275.878 336.669,276.973 335.422 L 277.500 334.822 277.500 330.078 L 277.500 325.333 278.752 325.333 L 280.004 325.333 279.960 331.958 L 279.917 338.583 278.708 338.632 L 277.500 338.681 277.500 337.924 C 277.500 337.042,277.467 337.025,276.868 337.600 C 275.286 339.120,272.364 339.377,270.664 338.145 C 269.214 337.095,269.004 336.086,269.002 330.125 L 269.000 325.333 270.250 325.333 L 271.500 325.333 271.500 330.163 M335.627 331.958 L 335.583 338.583 334.375 338.632 L 333.167 338.681 333.167 332.007 L 333.167 325.333 334.419 325.333 L 335.670 325.333 335.627 331.958 M258.750 327.253 C 255.944 328.759,255.665 334.553,258.308 336.410 C 260.030 337.621,262.385 336.934,263.415 334.922 C 264.552 332.699,263.968 328.930,262.279 327.593 C 261.490 326.968,259.617 326.787,258.750 327.253 M301.048 327.327 C 298.488 328.889,298.653 335.676,301.279 336.773 C 302.551 337.304,304.314 336.743,305.416 335.455 L 306.000 334.773 306.000 331.668 L 306.000 328.562 305.542 328.124 C 304.406 327.039,302.171 326.643,301.048 327.327 M343.000 327.178 C 339.816 328.504,339.875 335.534,343.081 336.758 C 346.267 337.975,348.744 334.873,348.015 330.579 C 347.542 327.795,345.250 326.241,343.000 327.178 M316.395 332.415 C 312.485 333.266,312.435 336.923,316.333 336.913 C 319.031 336.905,320.167 335.937,320.167 333.644 L 320.167 332.167 318.792 332.180 C 318.035 332.187,316.957 332.293,316.395 332.415 " stroke="none" fill="#fbfbfb" fill-rule="evenodd"></path><path id="path2" d="M198.167 25.375 C 198.167 39.331,198.117 83.881,198.056 124.375 L 197.945 198.000 155.250 198.000 C 131.768 198.000,87.230 198.050,56.278 198.111 L -0.000 198.222 -0.000 200.111 L 0.000 202.000 37.500 202.000 L 75.000 202.000 75.000 263.500 L 75.000 325.000 136.542 325.041 L 198.083 325.083 198.125 362.542 L 198.167 400.000 200.084 400.000 L 202.000 400.000 202.042 301.042 L 202.083 202.083 301.042 202.042 L 400.000 202.000 400.000 200.083 L 400.000 198.167 350.167 198.167 L 300.333 198.167 300.333 149.000 L 300.333 99.833 251.167 99.833 L 202.000 99.833 202.000 49.917 L 202.000 0.000 200.083 0.000 L 198.167 0.000 198.167 25.375 M48.833 85.833 L 48.833 87.500 53.333 87.500 L 57.833 87.500 57.833 99.583 L 57.833 111.667 59.667 111.667 L 61.500 111.667 61.500 99.583 L 61.500 87.500 66.000 87.500 L 70.500 87.500 70.500 85.833 L 70.500 84.167 59.667 84.167 L 48.833 84.167 48.833 85.833 M74.500 97.917 L 74.500 111.667 76.333 111.667 L 78.167 111.667 78.167 105.250 L 78.167 98.833 85.333 98.833 L 92.500 98.833 92.500 105.250 L 92.500 111.667 94.250 111.667 L 96.000 111.667 96.000 97.917 L 96.000 84.167 94.250 84.167 L 92.500 84.167 92.500 89.833 L 92.500 95.500 85.333 95.500 L 78.167 95.500 78.167 89.833 L 78.167 84.167 76.333 84.167 L 74.500 84.167 74.500 97.917 M102.333 97.917 L 102.333 111.667 104.081 111.667 L 105.829 111.667 105.873 105.458 L 105.917 99.250 112.375 99.206 L 118.833 99.163 118.833 97.581 L 118.833 96.000 112.333 96.000 L 105.833 96.000 105.833 91.750 L 105.833 87.500 113.333 87.500 L 120.833 87.500 120.833 85.833 L 120.833 84.167 111.583 84.167 L 102.333 84.167 102.333 97.917 M125.667 97.917 L 125.667 111.667 127.500 111.667 L 129.333 111.667 129.333 105.417 L 129.333 99.167 135.833 99.167 L 142.333 99.167 142.333 97.583 L 142.333 96.000 135.833 96.000 L 129.333 96.000 129.333 91.750 L 129.333 87.500 136.833 87.500 L 144.333 87.500 144.333 85.833 L 144.333 84.167 135.000 84.167 L 125.667 84.167 125.667 97.917 M296.333 150.833 L 296.333 197.833 249.167 197.833 L 202.000 197.833 202.000 150.833 L 202.000 103.833 249.167 103.833 L 296.333 103.833 296.333 150.833 M198.167 261.583 L 198.167 321.167 138.583 321.167 L 79.000 321.167 79.000 261.583 L 79.000 202.000 138.583 202.000 L 198.167 202.000 198.167 261.583 M238.167 234.500 L 238.167 235.500 241.167 235.500 L 244.167 235.500 244.167 243.583 L 244.167 251.667 245.333 251.667 L 246.500 251.667 246.500 243.583 L 246.500 235.500 249.500 235.500 L 252.500 235.500 252.500 234.500 L 252.500 233.500 245.333 233.500 L 238.167 233.500 238.167 234.500 M255.000 242.583 L 255.000 251.667 256.083 251.667 L 257.167 251.667 257.167 246.933 L 257.167 242.200 258.081 241.364 C 259.631 239.948,261.363 239.652,262.501 240.610 C 263.252 241.242,263.331 241.847,263.332 246.958 L 263.333 251.667 264.509 251.667 L 265.684 251.667 265.625 246.542 C 265.558 240.826,265.512 240.533,264.490 239.426 C 262.924 237.726,259.923 237.769,257.934 239.520 L 257.167 240.195 257.167 236.847 L 257.167 233.500 256.083 233.500 L 255.000 233.500 255.000 242.583 M272.604 238.439 C 267.095 240.131,266.767 249.434,272.142 251.521 C 274.970 252.619,278.569 251.654,279.827 249.461 C 280.615 248.087,280.539 247.593,279.560 247.727 C 279.135 247.786,278.610 247.833,278.393 247.833 C 278.116 247.833,278.000 247.928,278.000 248.154 C 278.000 249.131,276.333 250.159,274.750 250.159 C 272.603 250.159,271.121 248.751,270.768 246.375 L 270.663 245.667 275.689 245.667 L 280.716 245.667 280.619 244.284 C 280.303 239.816,276.693 237.184,272.604 238.439 M276.525 240.590 C 277.290 241.127,277.948 242.218,278.110 243.216 L 278.210 243.833 274.522 243.833 L 270.833 243.833 270.833 243.406 C 270.833 240.794,274.344 239.057,276.525 240.590 M239.667 271.583 L 239.667 280.667 240.833 280.667 L 242.000 280.667 242.000 276.333 L 242.000 272.000 246.750 272.000 L 251.500 272.000 251.500 276.333 L 251.500 280.667 252.667 280.667 L 253.833 280.667 253.833 271.583 L 253.833 262.500 252.667 262.500 L 251.500 262.500 251.500 266.250 L 251.500 270.000 246.750 270.000 L 242.000 270.000 242.000 266.250 L 242.000 262.500 240.833 262.500 L 239.667 262.500 239.667 271.583 M260.627 267.479 C 258.882 267.934,257.876 268.901,257.527 270.458 L 257.369 271.167 258.504 271.167 C 259.618 271.167,259.642 271.158,259.745 270.690 C 259.989 269.578,261.094 269.000,262.976 269.000 C 265.268 269.000,266.133 269.730,266.157 271.685 L 266.167 272.453 265.142 272.560 C 264.579 272.618,263.750 272.667,263.300 272.667 C 259.646 272.667,256.994 274.598,257.005 277.250 C 257.019 280.687,261.912 282.171,265.458 279.815 L 266.167 279.345 266.167 280.006 L 266.167 280.667 267.351 280.667 L 268.535 280.667 268.472 275.542 L 268.409 270.417 267.969 269.470 C 267.042 267.475,263.904 266.624,260.627 267.479 M275.034 267.482 C 270.311 269.114,269.704 278.155,274.165 280.416 C 275.964 281.327,278.125 281.083,279.578 279.803 L 280.377 279.100 280.306 280.592 C 280.181 283.205,279.263 284.185,276.933 284.194 C 275.133 284.201,274.000 283.518,274.000 282.425 C 274.000 282.216,273.776 282.167,272.833 282.167 C 271.696 282.167,271.667 282.177,271.667 282.589 C 271.667 286.324,279.370 287.332,281.647 283.894 C 282.571 282.500,282.667 281.585,282.667 274.175 L 282.667 267.500 281.500 267.500 C 280.367 267.500,280.333 267.512,280.333 267.917 C 280.333 268.415,280.268 268.426,279.692 268.025 C 278.475 267.176,276.564 266.954,275.034 267.482 M289.832 267.404 C 285.959 268.474,284.154 273.734,286.253 277.831 C 288.557 282.327,296.402 281.874,297.414 277.187 L 297.536 276.624 296.393 276.745 C 295.764 276.811,295.231 276.915,295.208 276.974 C 293.759 280.736,287.833 279.278,287.833 275.160 L 287.833 274.667 292.833 274.667 L 297.833 274.667 297.833 274.076 C 297.833 269.294,294.140 266.214,289.832 267.404 M305.264 267.429 C 304.905 267.561,304.211 267.970,303.722 268.340 L 302.833 269.011 302.833 268.255 L 302.833 267.500 301.667 267.500 L 300.500 267.500 300.500 274.083 L 300.500 280.667 301.667 280.667 L 302.833 280.667 302.833 275.849 L 302.833 271.031 303.686 270.265 C 305.046 269.042,306.822 268.701,307.972 269.442 C 308.822 269.989,308.906 270.526,308.968 275.792 L 309.026 280.667 310.097 280.667 L 311.167 280.667 311.167 275.697 C 311.167 269.970,311.078 269.411,310.000 268.333 C 308.934 267.267,306.812 266.862,305.264 267.429 M278.667 269.347 C 279.079 269.534,279.623 269.883,279.875 270.124 L 280.333 270.562 280.333 273.842 L 280.333 277.121 279.496 277.904 C 275.978 281.195,272.495 277.698,273.736 272.121 C 274.344 269.391,276.315 268.282,278.667 269.347 M293.085 269.311 C 294.197 269.816,295.333 271.527,295.333 272.697 C 295.333 272.772,293.646 272.833,291.583 272.833 C 289.521 272.833,287.833 272.772,287.833 272.697 C 287.833 270.838,289.694 269.007,291.583 269.007 C 292.042 269.007,292.717 269.144,293.085 269.311 M265.708 274.331 L 266.167 274.333 266.167 275.819 L 266.167 277.305 265.440 277.944 C 262.525 280.511,257.648 278.560,259.794 275.686 C 260.480 274.767,263.319 273.982,264.917 274.269 C 265.100 274.302,265.456 274.330,265.708 274.331 M239.667 300.583 L 239.667 309.667 240.833 309.667 L 242.000 309.667 242.000 305.500 L 242.000 301.333 246.250 301.333 L 250.500 301.333 250.500 300.250 L 250.500 299.167 246.250 299.167 L 242.000 299.167 242.000 296.333 L 242.000 293.500 246.917 293.500 L 251.833 293.500 251.833 292.500 L 251.833 291.500 245.750 291.500 L 239.667 291.500 239.667 300.583 M290.500 292.667 L 290.500 293.833 291.667 293.833 L 292.833 293.833 292.833 292.667 L 292.833 291.500 291.667 291.500 L 290.500 291.500 290.500 292.667 M296.333 300.583 L 296.333 309.667 297.500 309.667 L 298.667 309.667 298.667 300.583 L 298.667 291.500 297.500 291.500 L 296.333 291.500 296.333 300.583 M257.794 296.479 C 256.063 296.930,254.893 298.086,254.608 299.625 L 254.508 300.167 255.658 300.167 C 256.786 300.167,256.809 300.158,256.912 299.690 C 257.153 298.590,258.262 298.000,260.091 298.000 C 262.351 298.000,263.076 298.543,263.264 300.375 L 263.374 301.448 262.329 301.557 C 261.755 301.618,260.916 301.667,260.467 301.667 C 256.833 301.667,254.181 303.552,254.170 306.144 C 254.156 309.699,259.032 311.229,262.625 308.797 L 263.333 308.317 263.333 308.992 L 263.333 309.667 264.500 309.667 L 265.667 309.667 265.665 305.625 C 265.663 299.366,265.392 297.962,264.014 297.092 C 262.569 296.180,259.935 295.920,257.794 296.479 M273.572 296.552 C 273.108 296.774,272.452 297.199,272.114 297.495 L 271.500 298.035 271.500 297.267 L 271.500 296.500 270.333 296.500 L 269.167 296.500 269.167 303.083 L 269.167 309.667 270.333 309.667 L 271.500 309.667 271.500 304.850 L 271.500 300.033 272.402 299.209 C 274.064 297.690,275.860 297.636,276.583 299.083 C 276.890 299.697,276.921 300.145,276.969 304.708 L 277.022 309.667 278.094 309.667 L 279.167 309.667 279.167 304.926 L 279.167 300.185 280.014 299.351 C 281.341 298.045,282.976 297.677,283.898 298.477 C 284.607 299.092,284.667 299.580,284.667 304.745 L 284.667 309.667 285.846 309.667 L 287.025 309.667 286.965 304.375 C 286.909 299.416,286.884 299.036,286.555 298.333 C 285.360 295.774,282.191 295.417,279.867 297.581 L 278.929 298.454 278.473 297.735 C 277.564 296.300,275.261 295.745,273.572 296.552 M290.500 303.083 L 290.500 309.667 291.667 309.667 L 292.833 309.667 292.833 303.083 L 292.833 296.500 291.667 296.500 L 290.500 296.500 290.500 303.083 M300.928 296.875 C 300.993 297.081,301.828 299.313,302.784 301.833 C 303.741 304.354,304.788 307.116,305.111 307.971 C 306.091 310.562,304.889 312.960,302.646 312.891 L 301.818 312.866 301.867 313.891 L 301.917 314.917 302.750 314.969 C 305.431 315.138,306.040 314.335,308.840 306.938 C 309.746 304.543,311.009 301.212,311.645 299.535 L 312.802 296.487 311.543 296.535 L 310.284 296.583 308.600 301.528 C 307.674 304.247,306.870 306.519,306.812 306.577 C 306.754 306.635,306.181 305.122,305.537 303.216 C 304.893 301.310,304.115 299.019,303.808 298.125 L 303.250 296.500 302.030 296.500 C 300.842 296.500,300.814 296.510,300.928 296.875 M262.875 303.331 L 263.333 303.333 263.333 304.801 C 263.333 306.514,263.038 306.948,261.333 307.738 C 258.325 309.133,255.267 307.007,256.949 304.689 C 257.620 303.764,260.461 302.978,262.083 303.269 C 262.267 303.302,262.623 303.330,262.875 303.331 M239.667 329.417 L 239.667 338.500 240.833 338.500 L 242.000 338.500 242.000 334.417 L 242.000 330.333 246.250 330.333 L 250.500 330.333 250.500 329.250 L 250.500 328.167 246.250 328.167 L 242.000 328.167 242.000 325.333 L 242.000 322.500 246.917 322.500 L 251.833 322.500 251.833 321.417 L 251.833 320.333 245.750 320.333 L 239.667 320.333 239.667 329.417 M305.962 323.349 L 305.917 326.364 305.500 326.044 C 304.118 324.984,301.769 324.824,300.043 325.674 C 295.585 327.869,295.750 336.923,300.277 338.546 C 302.073 339.190,304.088 338.792,305.375 337.540 L 306.000 336.932 306.000 337.716 L 306.000 338.500 307.167 338.500 L 308.333 338.500 308.333 329.417 L 308.333 320.333 307.170 320.333 L 306.008 320.333 305.962 323.349 M333.167 321.583 L 333.167 322.833 334.333 322.833 L 335.500 322.833 335.500 321.583 L 335.500 320.333 334.333 320.333 L 333.167 320.333 333.167 321.583 M326.500 323.667 L 326.500 325.333 325.667 325.333 L 324.833 325.333 324.833 326.250 L 324.833 327.167 325.667 327.167 L 326.500 327.167 326.500 331.922 C 326.500 338.321,326.598 338.540,329.513 338.641 L 331.167 338.698 331.167 337.799 L 331.167 336.900 330.580 336.969 C 328.852 337.170,328.774 336.947,328.702 331.625 L 328.642 327.167 329.738 327.167 L 330.833 327.167 330.833 326.250 L 330.833 325.333 329.750 325.333 L 328.667 325.333 328.667 323.667 L 328.667 322.000 327.583 322.000 L 326.500 322.000 326.500 323.667 M258.000 325.445 C 252.942 327.212,252.693 336.105,257.637 338.390 C 258.869 338.959,261.741 338.915,263.000 338.308 C 267.943 335.924,267.504 326.939,262.369 325.394 C 261.350 325.087,258.943 325.115,258.000 325.445 M287.501 325.677 C 286.998 325.955,286.379 326.380,286.126 326.622 L 285.667 327.062 285.667 326.198 L 285.667 325.333 284.500 325.333 L 283.333 325.333 283.333 331.917 L 283.333 338.500 284.500 338.500 L 285.667 338.500 285.667 333.771 L 285.667 329.042 286.400 328.366 C 288.270 326.643,290.608 326.494,291.456 328.044 C 291.715 328.519,291.756 329.177,291.801 333.542 L 291.852 338.500 293.020 338.500 L 294.189 338.500 294.124 333.458 C 294.058 328.207,293.996 327.706,293.285 326.647 C 292.263 325.125,289.380 324.642,287.501 325.677 M314.583 325.400 C 312.796 325.965,311.884 326.920,311.579 328.547 L 311.463 329.167 312.648 329.167 C 313.813 329.167,313.833 329.159,313.833 328.733 C 313.833 327.606,315.563 326.736,317.528 326.875 C 319.487 327.014,320.160 327.666,320.164 329.433 L 320.167 330.449 317.958 330.554 C 313.315 330.776,311.167 332.183,311.167 335.002 C 311.167 338.469,315.634 340.087,319.231 337.921 L 320.167 337.358 320.167 337.929 L 320.167 338.500 321.344 338.500 L 322.521 338.500 322.469 333.208 C 322.410 327.292,322.362 327.034,321.127 326.115 C 319.906 325.208,316.402 324.825,314.583 325.400 M342.127 325.410 C 337.080 327.335,336.794 336.134,341.707 338.354 C 342.945 338.913,345.854 338.933,347.029 338.390 C 351.675 336.243,351.800 327.878,347.218 325.657 C 346.207 325.167,343.153 325.019,342.127 325.410 M357.574 325.581 C 357.121 325.808,356.515 326.217,356.227 326.488 C 355.606 327.075,355.500 327.012,355.500 326.056 L 355.500 325.333 354.417 325.333 L 353.333 325.333 353.333 331.917 L 353.333 338.500 354.417 338.500 L 355.500 338.500 355.500 333.805 L 355.500 329.110 356.271 328.370 C 358.048 326.668,360.283 326.496,361.287 327.985 C 361.661 328.541,361.667 328.622,361.667 333.525 L 361.667 338.500 362.844 338.500 L 364.021 338.500 363.969 333.292 C 363.912 327.601,363.871 327.343,362.866 326.271 C 361.759 325.090,359.213 324.758,357.574 325.581 M269.167 330.410 C 269.167 336.104,269.267 336.720,270.375 337.793 C 271.940 339.310,274.984 339.175,276.886 337.505 L 277.500 336.965 277.500 337.733 L 277.500 338.500 278.667 338.500 L 279.833 338.500 279.833 331.917 L 279.833 325.333 278.667 325.333 L 277.500 325.333 277.500 330.150 L 277.500 334.967 276.598 335.791 C 274.839 337.399,272.591 337.399,271.712 335.790 C 271.452 335.314,271.410 334.658,271.364 330.292 L 271.311 325.333 270.239 325.333 L 269.167 325.333 269.167 330.410 M333.167 331.917 L 333.167 338.500 334.333 338.500 L 335.500 338.500 335.500 331.917 L 335.500 325.333 334.333 325.333 L 333.167 325.333 333.167 331.917 M261.392 327.013 C 264.703 327.933,265.047 335.119,261.857 336.733 C 259.074 338.140,256.648 336.100,256.527 332.250 C 256.403 328.280,258.361 326.172,261.392 327.013 M304.348 327.251 C 304.661 327.410,305.160 327.722,305.458 327.945 L 306.000 328.350 306.000 331.640 L 306.000 334.929 305.208 335.697 C 302.273 338.542,299.436 337.073,299.209 332.590 C 298.983 328.117,301.301 325.709,304.348 327.251 M346.061 327.248 C 348.388 328.361,348.998 333.692,347.045 335.854 C 344.726 338.420,341.246 336.978,340.662 333.208 C 339.973 328.763,342.770 325.676,346.061 327.248 M320.169 333.208 C 320.170 333.781,320.214 334.409,320.266 334.603 C 320.529 335.584,318.185 337.045,316.334 337.054 C 314.473 337.064,313.499 336.312,313.501 334.867 C 313.502 333.087,315.126 332.223,318.542 332.185 L 320.167 332.167 320.169 333.208 " stroke="none" fill="#040404" fill-rule="evenodd"></path><path id="path3" d="M202.082 49.917 C 202.082 77.417,202.101 88.642,202.125 74.862 C 202.149 61.081,202.149 38.581,202.125 24.862 C 202.101 11.142,202.082 22.417,202.082 49.917 M92.408 89.833 C 92.408 92.996,92.431 94.290,92.458 92.708 C 92.485 91.127,92.485 88.540,92.458 86.958 C 92.431 85.377,92.408 86.671,92.408 89.833 M102.246 97.917 C 102.246 105.525,102.267 108.662,102.292 104.887 C 102.317 101.113,102.317 94.888,102.292 91.054 C 102.267 87.220,102.246 90.308,102.246 97.917 M105.906 91.750 C 105.906 94.133,105.929 95.085,105.958 93.865 C 105.986 92.645,105.986 90.695,105.958 89.532 C 105.929 88.368,105.906 89.367,105.906 91.750 M129.406 91.750 C 129.406 94.133,129.429 95.085,129.458 93.865 C 129.486 92.645,129.486 90.695,129.458 89.532 C 129.429 88.368,129.406 89.367,129.406 91.750 M92.409 105.250 C 92.409 108.825,92.431 110.264,92.458 108.447 C 92.485 106.631,92.485 103.706,92.458 101.947 C 92.431 100.189,92.409 101.675,92.409 105.250 M105.909 105.500 C 105.909 108.938,105.931 110.344,105.958 108.625 C 105.985 106.906,105.985 104.094,105.958 102.375 C 105.931 100.656,105.909 102.063,105.909 105.500 M129.409 105.500 C 129.409 108.938,129.431 110.344,129.458 108.625 C 129.485 106.906,129.485 104.094,129.458 102.375 C 129.431 100.656,129.409 102.063,129.409 105.500 M18.708 202.125 C 29.044 202.149,45.956 202.149,56.292 202.125 C 66.627 202.101,58.171 202.082,37.500 202.082 C 16.829 202.082,8.373 202.101,18.708 202.125 M79.000 261.500 L 79.000 321.000 138.500 321.000 L 198.000 321.000 198.000 261.500 L 198.000 202.000 138.500 202.000 L 79.000 202.000 79.000 261.500 M251.528 202.125 C 278.723 202.148,323.273 202.148,350.528 202.125 C 377.783 202.102,355.533 202.083,301.083 202.083 C 246.633 202.083,224.333 202.102,251.528 202.125 M257.218 234.250 C 257.219 234.800,257.250 235.005,257.287 234.705 C 257.325 234.406,257.324 233.956,257.286 233.705 C 257.248 233.455,257.217 233.700,257.218 234.250 M239.458 235.624 C 240.306 235.654,241.694 235.654,242.542 235.624 C 243.390 235.594,242.696 235.569,241.000 235.569 C 239.304 235.569,238.610 235.594,239.458 235.624 M248.050 235.624 C 248.949 235.654,250.374 235.654,251.217 235.624 C 252.060 235.594,251.325 235.569,249.583 235.569 C 247.842 235.570,247.152 235.594,248.050 235.624 M257.240 246.917 C 257.240 249.575,257.263 250.639,257.291 249.281 C 257.319 247.924,257.319 245.749,257.291 244.448 C 257.263 243.147,257.240 244.258,257.240 246.917 M300.409 274.000 C 300.409 277.712,300.431 279.231,300.458 277.375 C 300.485 275.519,300.485 272.481,300.458 270.625 C 300.431 268.769,300.409 270.287,300.409 274.000 M258.500 271.167 L 257.250 271.273 258.448 271.303 C 259.108 271.320,259.693 271.258,259.750 271.167 C 259.807 271.075,259.830 271.014,259.802 271.030 C 259.773 271.047,259.188 271.108,258.500 271.167 M266.042 271.917 C 266.044 272.283,266.078 272.414,266.118 272.206 C 266.158 271.999,266.156 271.699,266.115 271.540 C 266.073 271.380,266.040 271.550,266.042 271.917 M273.545 274.167 C 273.545 274.579,273.578 274.748,273.618 274.542 C 273.657 274.335,273.657 273.998,273.618 273.792 C 273.578 273.585,273.545 273.754,273.545 274.167 M265.999 275.867 C 265.954 276.757,265.976 277.425,266.049 277.352 C 266.121 277.279,266.158 276.551,266.131 275.735 L 266.081 274.250 265.999 275.867 M266.042 280.083 C 266.044 280.450,266.078 280.580,266.118 280.373 C 266.158 280.166,266.156 279.866,266.115 279.706 C 266.073 279.547,266.040 279.717,266.042 280.083 M251.865 292.373 L 251.833 293.495 246.875 293.542 L 241.917 293.588 246.880 293.628 C 252.482 293.672,252.054 293.789,251.957 292.231 L 251.896 291.250 251.865 292.373 M290.392 292.667 C 290.392 293.446,290.420 293.765,290.455 293.375 C 290.490 292.985,290.490 292.348,290.455 291.958 C 290.420 291.569,290.392 291.887,290.392 292.667 M296.244 300.583 C 296.244 305.625,296.266 307.712,296.292 305.220 C 296.317 302.729,296.317 298.604,296.292 296.053 C 296.266 293.503,296.244 295.542,296.244 300.583 M290.373 303.042 L 290.413 309.750 290.458 303.132 L 290.504 296.515 291.710 296.457 L 292.917 296.400 291.625 296.366 L 290.333 296.333 290.373 303.042 M301.961 296.454 C 302.261 296.491,302.711 296.490,302.961 296.452 C 303.212 296.414,302.967 296.384,302.417 296.385 C 301.867 296.386,301.662 296.417,301.961 296.454 M310.542 296.448 C 310.702 296.490,310.965 296.490,311.125 296.448 C 311.285 296.406,311.154 296.372,310.833 296.372 C 310.512 296.372,310.381 296.406,310.542 296.448 M269.076 303.083 C 269.076 306.750,269.098 308.226,269.125 306.364 C 269.152 304.502,269.152 301.502,269.125 299.697 C 269.098 297.893,269.076 299.417,269.076 303.083 M256.833 299.882 C 256.833 300.101,256.605 300.163,255.625 300.210 L 254.417 300.267 255.630 300.300 C 256.792 300.332,257.319 300.096,256.937 299.715 C 256.880 299.658,256.833 299.733,256.833 299.882 M287.073 305.333 C 287.073 307.762,287.096 308.756,287.125 307.542 C 287.153 306.327,287.153 304.340,287.125 303.125 C 287.096 301.910,287.073 302.904,287.073 305.333 M244.125 301.458 C 245.340 301.486,247.327 301.486,248.542 301.458 C 249.756 301.429,248.762 301.406,246.333 301.406 C 243.904 301.406,242.910 301.429,244.125 301.458 M263.226 304.750 C 263.225 305.575,263.254 305.934,263.288 305.547 C 263.323 305.160,263.324 304.485,263.289 304.047 C 263.255 303.609,263.226 303.925,263.226 304.750 M263.209 309.083 C 263.211 309.450,263.245 309.580,263.285 309.373 C 263.324 309.166,263.323 308.866,263.281 308.706 C 263.239 308.547,263.207 308.717,263.209 309.083 M245.617 320.291 L 251.818 320.337 251.880 321.419 L 251.941 322.501 251.929 321.376 L 251.917 320.250 245.667 320.247 L 239.417 320.244 245.617 320.291 M306.542 320.288 C 306.885 320.324,307.448 320.324,307.792 320.288 C 308.135 320.252,307.854 320.223,307.167 320.223 C 306.479 320.223,306.198 320.252,306.542 320.288 M334.285 320.286 L 335.486 320.348 335.546 321.591 L 335.606 322.834 335.595 321.542 L 335.583 320.250 334.333 320.237 L 333.083 320.225 334.285 320.286 M202.082 362.583 C 202.082 383.208,202.101 391.621,202.125 381.278 C 202.149 370.936,202.149 354.061,202.125 343.778 C 202.101 333.496,202.082 341.958,202.082 362.583 M279.909 331.917 C 279.909 335.583,279.931 337.060,279.958 335.197 C 279.985 333.335,279.985 330.335,279.958 328.531 C 279.931 326.726,279.909 328.250,279.909 331.917 M324.718 326.250 C 324.719 326.800,324.750 327.005,324.787 326.705 C 324.825 326.406,324.824 325.956,324.786 325.705 C 324.748 325.455,324.717 325.700,324.718 326.250 M330.885 326.250 C 330.886 326.800,330.917 327.005,330.954 326.705 C 330.991 326.406,330.990 325.956,330.952 325.705 C 330.914 325.455,330.884 325.700,330.885 326.250 M335.576 331.917 C 335.576 335.583,335.598 337.060,335.625 335.197 C 335.652 333.335,335.652 330.335,335.625 328.531 C 335.598 326.726,335.576 328.250,335.576 331.917 M259.960 326.951 C 260.168 326.991,260.468 326.990,260.627 326.948 C 260.786 326.906,260.617 326.874,260.250 326.875 C 259.883 326.877,259.753 326.911,259.960 326.951 M302.208 326.948 C 302.369 326.990,302.631 326.990,302.792 326.948 C 302.952 326.906,302.821 326.872,302.500 326.872 C 302.179 326.872,302.048 326.906,302.208 326.948 M316.711 326.953 C 316.964 326.991,317.339 326.990,317.544 326.951 C 317.749 326.911,317.542 326.880,317.083 326.881 C 316.625 326.882,316.457 326.915,316.711 326.953 M344.127 326.951 C 344.334 326.991,344.634 326.990,344.794 326.948 C 344.953 326.906,344.783 326.874,344.417 326.875 C 344.050 326.877,343.920 326.911,344.127 326.951 M244.032 328.124 C 245.195 328.153,247.145 328.153,248.365 328.125 C 249.585 328.096,248.633 328.073,246.250 328.073 C 243.867 328.073,242.868 328.096,244.032 328.124 M286.158 328.625 L 285.583 329.250 286.208 328.676 C 286.552 328.360,286.833 328.078,286.833 328.051 C 286.833 327.923,286.692 328.043,286.158 328.625 M364.052 330.083 C 364.053 330.633,364.084 330.838,364.121 330.539 C 364.158 330.239,364.157 329.789,364.119 329.539 C 364.081 329.288,364.051 329.533,364.052 330.083 M318.461 330.454 C 318.761 330.491,319.211 330.490,319.461 330.452 C 319.712 330.414,319.467 330.384,318.917 330.385 C 318.367 330.386,318.162 330.417,318.461 330.454 M296.717 332.000 C 296.717 332.504,296.748 332.710,296.786 332.458 C 296.824 332.206,296.824 331.794,296.786 331.542 C 296.748 331.290,296.717 331.496,296.717 332.000 M273.542 336.948 C 273.702 336.990,273.965 336.990,274.125 336.948 C 274.285 336.906,274.154 336.872,273.833 336.872 C 273.512 336.872,273.381 336.906,273.542 336.948 M331.217 337.667 C 331.217 338.171,331.248 338.377,331.286 338.125 C 331.324 337.873,331.324 337.460,331.286 337.208 C 331.248 336.956,331.217 337.162,331.217 337.667 M259.795 338.954 C 260.094 338.991,260.544 338.990,260.795 338.952 C 261.045 338.914,260.800 338.884,260.250 338.885 C 259.700 338.886,259.495 338.917,259.795 338.954 M273.044 338.953 C 273.297 338.991,273.672 338.990,273.877 338.951 C 274.082 338.911,273.875 338.880,273.417 338.881 C 272.958 338.882,272.791 338.915,273.044 338.953 M301.711 338.953 C 301.964 338.991,302.339 338.990,302.544 338.951 C 302.749 338.911,302.542 338.880,302.083 338.881 C 301.625 338.882,301.457 338.915,301.711 338.953 M315.128 338.954 C 315.428 338.991,315.878 338.990,316.128 338.952 C 316.378 338.914,316.133 338.884,315.583 338.885 C 315.033 338.886,314.828 338.917,315.128 338.954 M343.961 338.954 C 344.261 338.991,344.711 338.990,344.961 338.952 C 345.212 338.914,344.967 338.884,344.417 338.885 C 343.867 338.886,343.662 338.917,343.961 338.954 " stroke="none" fill="#949494" fill-rule="evenodd"></path><path id="path4" d="M198.082 49.917 C 198.082 77.417,198.101 88.642,198.125 74.862 C 198.149 61.081,198.149 38.581,198.125 24.862 C 198.101 11.142,198.082 22.417,198.082 49.917 M70.562 85.833 C 70.562 86.796,70.589 87.190,70.623 86.708 C 70.657 86.227,70.657 85.440,70.623 84.958 C 70.589 84.477,70.562 84.871,70.562 85.833 M96.080 97.917 C 96.080 105.525,96.100 108.662,96.125 104.887 C 96.150 101.113,96.150 94.888,96.125 91.054 C 96.100 87.220,96.080 90.308,96.080 97.917 M109.114 99.291 C 110.872 99.318,113.797 99.318,115.614 99.291 C 117.430 99.265,115.992 99.242,112.417 99.242 C 108.842 99.242,107.355 99.264,109.114 99.291 M132.542 99.291 C 134.352 99.318,137.315 99.318,139.125 99.291 C 140.935 99.265,139.454 99.243,135.833 99.243 C 132.212 99.243,130.731 99.265,132.542 99.291 M18.708 198.125 C 29.044 198.149,45.956 198.149,56.292 198.125 C 66.627 198.101,58.171 198.082,37.500 198.082 C 16.829 198.082,8.373 198.101,18.708 198.125 M325.208 198.125 C 338.935 198.149,361.398 198.149,375.125 198.125 C 388.852 198.101,377.621 198.082,350.167 198.082 C 322.712 198.082,311.481 198.101,325.208 198.125 M198.000 261.500 L 198.000 321.000 138.458 321.042 L 78.917 321.084 138.542 321.125 L 198.167 321.167 198.167 261.583 C 198.167 228.813,198.129 202.000,198.083 202.000 C 198.037 202.000,198.000 228.775,198.000 261.500 M202.082 263.667 C 202.082 297.537,202.102 311.394,202.125 294.458 C 202.148 277.523,202.148 249.810,202.125 232.875 C 202.102 215.940,202.082 229.796,202.082 263.667 M238.069 233.562 C 238.020 233.687,238.009 234.193,238.043 234.687 L 238.105 235.583 238.136 234.542 L 238.167 233.500 245.325 233.500 L 252.484 233.500 252.543 234.542 L 252.602 235.583 252.635 234.458 L 252.667 233.333 245.411 233.333 C 239.424 233.333,238.141 233.373,238.069 233.562 M254.874 242.542 L 254.914 251.750 254.958 242.633 L 255.003 233.515 256.126 233.457 L 257.250 233.399 256.042 233.366 L 254.833 233.333 254.874 242.542 M257.234 237.667 C 257.234 239.088,257.259 239.669,257.291 238.958 C 257.322 238.248,257.322 237.085,257.291 236.375 C 257.259 235.665,257.234 236.246,257.234 237.667 M244.077 243.583 C 244.077 248.075,244.099 249.889,244.125 247.613 C 244.151 245.338,244.151 241.663,244.125 239.447 C 244.099 237.230,244.077 239.092,244.077 243.583 M260.542 240.115 C 260.702 240.157,260.965 240.157,261.125 240.115 C 261.285 240.073,261.154 240.039,260.833 240.039 C 260.512 240.039,260.381 240.073,260.542 240.115 M278.292 247.784 C 278.498 247.824,278.835 247.824,279.042 247.784 C 279.248 247.745,279.079 247.712,278.667 247.712 C 278.254 247.712,278.085 247.745,278.292 247.784 M239.540 271.542 L 239.580 280.750 239.625 271.632 L 239.670 262.515 240.876 262.457 L 242.083 262.400 240.792 262.366 L 239.500 262.333 239.540 271.542 M252.624 262.457 L 253.830 262.515 253.875 271.632 L 253.920 280.750 253.960 271.542 L 254.000 262.333 252.708 262.366 L 251.417 262.400 252.624 262.457 M280.794 267.451 C 281.001 267.491,281.301 267.490,281.460 267.448 C 281.620 267.406,281.450 267.374,281.083 267.375 C 280.717 267.377,280.586 267.411,280.794 267.451 M301.042 267.455 C 301.385 267.491,301.948 267.491,302.292 267.455 C 302.635 267.419,302.354 267.389,301.667 267.389 C 300.979 267.389,300.698 267.419,301.042 267.455 M306.208 269.115 C 306.369 269.157,306.631 269.157,306.792 269.115 C 306.952 269.073,306.821 269.039,306.500 269.039 C 306.179 269.039,306.048 269.073,306.208 269.115 M244.385 269.958 C 245.743 269.986,247.918 269.986,249.219 269.958 C 250.519 269.930,249.408 269.907,246.750 269.907 C 244.092 269.907,243.028 269.930,244.385 269.958 M308.906 276.167 C 308.906 278.688,308.930 279.719,308.958 278.458 C 308.986 277.198,308.986 275.135,308.958 273.875 C 308.930 272.615,308.906 273.646,308.906 276.167 M311.240 276.167 C 311.240 278.688,311.263 279.719,311.291 278.458 C 311.320 277.198,311.320 275.135,311.291 273.875 C 311.263 272.615,311.240 273.646,311.240 276.167 M244.385 272.125 C 245.743 272.153,247.918 272.153,249.219 272.125 C 250.519 272.096,249.408 272.073,246.750 272.074 C 244.092 272.074,243.028 272.097,244.385 272.125 M263.960 272.618 C 264.168 272.658,264.468 272.656,264.627 272.615 C 264.786 272.573,264.617 272.540,264.250 272.542 C 263.883 272.544,263.753 272.578,263.960 272.618 M285.372 273.500 C 285.372 273.821,285.406 273.952,285.448 273.792 C 285.490 273.631,285.490 273.369,285.448 273.208 C 285.406 273.048,285.372 273.179,285.372 273.500 M285.372 274.667 C 285.372 274.987,285.406 275.119,285.448 274.958 C 285.490 274.798,285.490 274.535,285.448 274.375 C 285.406 274.215,285.372 274.346,285.372 274.667 M295.460 276.785 C 295.668 276.824,295.968 276.823,296.127 276.781 C 296.286 276.739,296.117 276.707,295.750 276.709 C 295.383 276.711,295.253 276.745,295.460 276.785 M271.611 282.111 C 271.550 282.172,271.501 282.303,271.503 282.403 C 271.504 282.516,271.552 282.509,271.632 282.383 C 271.704 282.270,272.261 282.158,272.921 282.124 L 274.083 282.065 272.903 282.033 C 272.253 282.015,271.672 282.050,271.611 282.111 M239.540 300.542 L 239.580 309.750 239.625 300.627 L 239.670 291.504 245.793 291.458 L 251.917 291.412 245.708 291.373 L 239.500 291.333 239.540 300.542 M291.042 291.455 C 291.385 291.491,291.948 291.491,292.292 291.455 C 292.635 291.419,292.354 291.389,291.667 291.389 C 290.979 291.389,290.698 291.419,291.042 291.455 M296.875 291.455 C 297.219 291.491,297.781 291.491,298.125 291.455 C 298.469 291.419,298.188 291.389,297.500 291.389 C 296.813 291.389,296.531 291.419,296.875 291.455 M291.042 293.955 C 291.385 293.991,291.948 293.991,292.292 293.955 C 292.635 293.919,292.354 293.889,291.667 293.889 C 290.979 293.889,290.698 293.919,291.042 293.955 M269.621 296.454 C 269.917 296.490,270.442 296.491,270.788 296.455 C 271.134 296.419,270.892 296.389,270.250 296.388 C 269.608 296.387,269.325 296.417,269.621 296.454 M311.711 296.453 C 311.964 296.491,312.339 296.490,312.544 296.451 C 312.749 296.411,312.542 296.380,312.083 296.381 C 311.625 296.382,311.457 296.415,311.711 296.453 M274.542 298.115 C 274.702 298.157,274.965 298.157,275.125 298.115 C 275.285 298.073,275.154 298.039,274.833 298.039 C 274.512 298.039,274.381 298.073,274.542 298.115 M250.555 300.250 C 250.555 300.892,250.586 301.134,250.622 300.788 C 250.658 300.442,250.657 299.917,250.620 299.621 C 250.583 299.325,250.554 299.608,250.555 300.250 M279.240 304.917 C 279.240 307.575,279.263 308.639,279.291 307.281 C 279.319 305.924,279.319 303.749,279.291 302.448 C 279.263 301.147,279.240 302.258,279.240 304.917 M276.907 305.000 C 276.907 307.612,276.930 308.681,276.958 307.375 C 276.986 306.069,276.986 303.931,276.958 302.625 C 276.930 301.319,276.907 302.387,276.907 305.000 M261.127 301.618 C 261.334 301.658,261.634 301.656,261.794 301.615 C 261.953 301.573,261.783 301.540,261.417 301.542 C 261.050 301.544,260.920 301.578,261.127 301.618 M301.689 313.698 C 301.677 314.312,301.723 314.849,301.792 314.891 C 301.860 314.934,301.895 314.582,301.869 314.109 C 301.789 312.689,301.713 312.515,301.689 313.698 M239.540 329.458 L 239.500 338.667 240.792 338.634 L 242.083 338.600 240.876 338.543 L 239.670 338.485 239.625 329.368 L 239.580 320.250 239.540 329.458 M326.395 323.667 C 326.395 324.629,326.423 325.023,326.456 324.542 C 326.490 324.060,326.490 323.273,326.456 322.792 C 326.423 322.310,326.395 322.704,326.395 323.667 M328.728 323.667 C 328.728 324.629,328.756 325.023,328.790 324.542 C 328.823 324.060,328.823 323.273,328.790 322.792 C 328.756 322.310,328.728 322.704,328.728 323.667 M136.500 325.125 L 197.999 325.167 198.042 362.584 L 198.084 400.000 198.084 362.542 L 198.083 325.083 136.542 325.083 L 75.000 325.083 136.500 325.125 M259.877 325.120 C 260.131 325.158,260.506 325.157,260.711 325.117 C 260.916 325.078,260.708 325.046,260.250 325.048 C 259.792 325.049,259.624 325.081,259.877 325.120 M289.460 325.118 C 289.668 325.158,289.968 325.156,290.127 325.115 C 290.286 325.073,290.117 325.040,289.750 325.042 C 289.383 325.044,289.253 325.078,289.460 325.118 M316.625 325.121 C 316.923 325.158,317.410 325.158,317.708 325.121 C 318.006 325.084,317.762 325.053,317.167 325.053 C 316.571 325.053,316.327 325.084,316.625 325.121 M344.044 325.120 C 344.297 325.158,344.672 325.157,344.877 325.117 C 345.082 325.078,344.875 325.046,344.417 325.048 C 343.958 325.049,343.791 325.081,344.044 325.120 M359.292 325.118 C 359.498 325.157,359.835 325.157,360.042 325.118 C 360.248 325.078,360.079 325.045,359.667 325.045 C 359.254 325.045,359.085 325.078,359.292 325.118 M269.073 329.917 C 269.073 332.483,269.096 333.510,269.125 332.198 C 269.153 330.886,269.153 328.786,269.125 327.532 C 269.096 326.277,269.073 327.350,269.073 329.917 M271.407 330.000 C 271.407 332.612,271.430 333.681,271.458 332.375 C 271.486 331.069,271.486 328.931,271.458 327.625 C 271.430 326.319,271.407 327.387,271.407 330.000 M353.247 332.000 L 353.250 338.583 354.458 338.632 L 355.667 338.681 355.628 333.882 L 355.589 329.083 355.542 333.792 L 355.495 338.500 354.416 338.500 L 353.337 338.500 353.291 331.958 L 353.244 325.417 353.247 332.000 M355.519 326.032 C 355.509 326.462,355.559 326.850,355.632 326.895 C 355.704 326.940,355.738 326.701,355.706 326.363 C 355.608 325.333,355.540 325.211,355.519 326.032 M326.406 331.417 C 326.406 333.800,326.429 334.752,326.458 333.532 C 326.486 332.312,326.486 330.362,326.458 329.198 C 326.429 328.035,326.406 329.033,326.406 331.417 M328.739 331.333 C 328.739 333.671,328.763 334.627,328.791 333.458 C 328.820 332.290,328.820 330.377,328.791 329.208 C 328.763 328.040,328.739 328.996,328.739 331.333 M356.073 328.542 L 355.583 329.083 356.125 328.594 C 356.630 328.138,356.743 328.000,356.615 328.000 C 356.586 328.000,356.342 328.244,356.073 328.542 M250.555 329.250 C 250.555 329.892,250.586 330.134,250.622 329.788 C 250.658 329.442,250.657 328.917,250.620 328.621 C 250.583 328.325,250.554 328.608,250.555 329.250 M322.539 334.118 L 322.500 338.485 321.292 338.543 L 320.083 338.600 321.297 338.634 C 322.805 338.675,322.682 339.104,322.625 333.997 L 322.577 329.750 322.539 334.118 M254.053 332.000 C 254.053 332.596,254.084 332.840,254.121 332.542 C 254.158 332.244,254.158 331.756,254.121 331.458 C 254.084 331.160,254.053 331.404,254.053 332.000 M350.553 332.000 C 350.553 332.596,350.584 332.840,350.621 332.542 C 350.658 332.244,350.658 331.756,350.621 331.458 C 350.584 331.160,350.553 331.404,350.553 332.000 M364.038 334.701 L 364.000 338.485 362.792 338.543 L 361.583 338.600 362.797 338.634 C 364.299 338.675,364.184 339.026,364.125 334.579 L 364.076 330.917 364.038 334.701 M340.545 332.000 C 340.545 332.412,340.578 332.581,340.618 332.375 C 340.657 332.169,340.657 331.831,340.618 331.625 C 340.578 331.419,340.545 331.587,340.545 332.000 M278.042 338.621 C 278.385 338.657,278.948 338.657,279.292 338.621 C 279.635 338.585,279.354 338.556,278.667 338.556 C 277.979 338.556,277.698 338.585,278.042 338.621 M283.875 338.621 C 284.219 338.657,284.781 338.657,285.125 338.621 C 285.469 338.585,285.188 338.556,284.500 338.556 C 283.813 338.556,283.531 338.585,283.875 338.621 M292.375 338.621 C 292.719 338.657,293.281 338.657,293.625 338.621 C 293.969 338.585,293.688 338.556,293.000 338.556 C 292.313 338.556,292.031 338.585,292.375 338.621 M306.542 338.621 C 306.885 338.657,307.448 338.657,307.792 338.621 C 308.135 338.585,307.854 338.556,307.167 338.556 C 306.479 338.556,306.198 338.585,306.542 338.621 M333.708 338.621 C 334.052 338.657,334.615 338.657,334.958 338.621 C 335.302 338.585,335.021 338.556,334.333 338.556 C 333.646 338.556,333.365 338.585,333.708 338.621 M329.292 338.784 C 329.498 338.824,329.835 338.824,330.042 338.784 C 330.248 338.745,330.079 338.712,329.667 338.712 C 329.254 338.712,329.085 338.745,329.292 338.784 " stroke="none" fill="#7c7c7c" fill-rule="evenodd"></path></g></svg>